<svg width="115" height="31" viewBox="0 0 115 31" fill="none" xmlns="http://www.w3.org/2000/svg">
<g clip-path="url(#clip0_82_991)">
<path d="M19.7273 7H12.6364L8.81818 20.2245H15.9091L19.7273 7Z" fill="#003379"/>
<path d="M15.9091 20.7755H8.81818L4.99999 34H12.0909L15.9091 20.7755Z" fill="#003379"/>
<path d="M27.3636 7H20.2727L16.4545 20.2245H23.5455L27.3636 7Z" fill="#003379"/>
<path d="M23.5455 20.7755H16.4545L12.6364 34H19.7273L23.5455 20.7755Z" fill="#003379"/>
<path d="M35 7H27.9091L24.0909 20.2245H31.1818L35 7Z" fill="#003379"/>
<path d="M31.1818 20.7755H24.0909L20.2727 34H27.3636L31.1818 20.7755Z" fill="#003379"/>
<path d="M16.8182 8C16.8182 12.4183 13.2365 16 8.81817 16C4.3999 16 0.818174 12.4183 0.818174 8C0.818174 3.58172 4.3999 0 8.81817 0C13.2365 0 16.8182 3.58172 16.8182 8Z" fill="#FFE14B"/>
</g>
<path d="M42.768 18.112C42.032 18.112 41.3707 17.984 40.784 17.728C40.208 17.4613 39.7547 17.0987 39.424 16.64C39.0933 16.1707 38.9227 15.632 38.912 15.024H40.464C40.5173 15.5467 40.7307 15.9893 41.104 16.352C41.488 16.704 42.0427 16.88 42.768 16.88C43.4613 16.88 44.0053 16.7093 44.4 16.368C44.8053 16.016 45.008 15.568 45.008 15.024C45.008 14.5973 44.8907 14.2507 44.656 13.984C44.4213 13.7173 44.128 13.5147 43.776 13.376C43.424 13.2373 42.9493 13.088 42.352 12.928C41.616 12.736 41.024 12.544 40.576 12.352C40.1387 12.16 39.76 11.8613 39.44 11.456C39.1307 11.04 38.976 10.4853 38.976 9.792C38.976 9.184 39.1307 8.64533 39.44 8.176C39.7493 7.70667 40.1813 7.344 40.736 7.088C41.3013 6.832 41.9467 6.704 42.672 6.704C43.7173 6.704 44.5707 6.96533 45.232 7.488C45.904 8.01067 46.2827 8.704 46.368 9.568H44.768C44.7147 9.14133 44.4907 8.768 44.096 8.448C43.7013 8.11733 43.1787 7.952 42.528 7.952C41.92 7.952 41.424 8.112 41.04 8.432C40.656 8.74133 40.464 9.17867 40.464 9.744C40.464 10.1493 40.576 10.48 40.8 10.736C41.0347 10.992 41.3173 11.1893 41.648 11.328C41.9893 11.456 42.464 11.6053 43.072 11.776C43.808 11.9787 44.4 12.1813 44.848 12.384C45.296 12.576 45.68 12.88 46 13.296C46.32 13.7013 46.48 14.256 46.48 14.96C46.48 15.504 46.336 16.016 46.048 16.496C45.76 16.976 45.3333 17.3653 44.768 17.664C44.2027 17.9627 43.536 18.112 42.768 18.112ZM54.4786 18.112C53.444 18.112 52.5 17.872 51.6466 17.392C50.7933 16.9013 50.116 16.224 49.6146 15.36C49.124 14.4853 48.8786 13.504 48.8786 12.416C48.8786 11.328 49.124 10.352 49.6146 9.488C50.116 8.61333 50.7933 7.936 51.6466 7.456C52.5 6.96533 53.444 6.72 54.4786 6.72C55.524 6.72 56.4733 6.96533 57.3266 7.456C58.18 7.936 58.852 8.608 59.3426 9.472C59.8333 10.336 60.0786 11.3173 60.0786 12.416C60.0786 13.5147 59.8333 14.496 59.3426 15.36C58.852 16.224 58.18 16.9013 57.3266 17.392C56.4733 17.872 55.524 18.112 54.4786 18.112ZM54.4786 16.848C55.2573 16.848 55.956 16.6667 56.5746 16.304C57.204 15.9413 57.6946 15.424 58.0466 14.752C58.4093 14.08 58.5906 13.3013 58.5906 12.416C58.5906 11.52 58.4093 10.7413 58.0466 10.08C57.6946 9.408 57.2093 8.89067 56.5906 8.528C55.972 8.16533 55.268 7.984 54.4786 7.984C53.6893 7.984 52.9853 8.16533 52.3666 8.528C51.748 8.89067 51.2573 9.408 50.8946 10.08C50.5426 10.7413 50.3666 11.52 50.3666 12.416C50.3666 13.3013 50.5426 14.08 50.8946 14.752C51.2573 15.424 51.748 15.9413 52.3666 16.304C52.996 16.6667 53.7 16.848 54.4786 16.848ZM64.2568 16.816H68.1608V18H62.8008V6.848H64.2568V16.816ZM77.099 15.52H72.235L71.339 18H69.803L73.835 6.912H75.515L79.531 18H77.995L77.099 15.52ZM76.683 14.336L74.667 8.704L72.651 14.336H76.683ZM87.9603 18L85.3043 13.44H83.5443V18H82.0883V6.848H85.6883C86.5309 6.848 87.2403 6.992 87.8163 7.28C88.4029 7.568 88.8403 7.95733 89.1283 8.448C89.4163 8.93867 89.5603 9.49867 89.5603 10.128C89.5603 10.896 89.3363 11.5733 88.8883 12.16C88.4509 12.7467 87.7896 13.136 86.9043 13.328L89.7043 18H87.9603ZM83.5443 12.272H85.6883C86.4776 12.272 87.0696 12.08 87.4643 11.696C87.8589 11.3013 88.0563 10.7787 88.0563 10.128C88.0563 9.46667 87.8589 8.95467 87.4643 8.592C87.0803 8.22933 86.4883 8.048 85.6883 8.048H83.5443V12.272Z" fill="#003379"/>
<path d="M99.88 10.192C99.624 9.72267 99.272 9.36533 98.824 9.12C98.376 8.87467 97.8533 8.752 97.256 8.752C96.5947 8.752 96.008 8.90133 95.496 9.2C94.984 9.49867 94.584 9.92533 94.296 10.48C94.008 11.0347 93.864 11.6747 93.864 12.4C93.864 13.1467 94.008 13.7973 94.296 14.352C94.5947 14.9067 95.0053 15.3333 95.528 15.632C96.0507 15.9307 96.6587 16.08 97.352 16.08C98.2053 16.08 98.904 15.856 99.448 15.408C99.992 14.9493 100.349 14.3147 100.52 13.504H96.68V11.792H102.728V13.744C102.579 14.5227 102.259 15.2427 101.768 15.904C101.277 16.5653 100.643 17.0987 99.864 17.504C99.096 17.8987 98.232 18.096 97.272 18.096C96.1947 18.096 95.2187 17.856 94.344 17.376C93.48 16.8853 92.7973 16.208 92.296 15.344C91.8053 14.48 91.56 13.4987 91.56 12.4C91.56 11.3013 91.8053 10.32 92.296 9.456C92.7973 8.58133 93.48 7.904 94.344 7.424C95.2187 6.93333 96.1893 6.688 97.256 6.688C98.5147 6.688 99.608 6.99733 100.536 7.616C101.464 8.224 102.104 9.08267 102.456 10.192H99.88ZM114.065 6.832L110.289 14.112V18H108.049V14.112L104.257 6.832H106.785L109.185 11.936L111.569 6.832H114.065Z" fill="#038F00"/>
<path d="M49.144 27.064C48.6427 27.064 48.232 26.9493 47.912 26.72C47.5973 26.4853 47.4213 26.168 47.384 25.768H47.96C47.9867 26.0133 48.1013 26.2133 48.304 26.368C48.512 26.5173 48.7893 26.592 49.136 26.592C49.44 26.592 49.6773 26.52 49.848 26.376C50.024 26.232 50.112 26.0533 50.112 25.84C50.112 25.6907 50.064 25.568 49.968 25.472C49.872 25.376 49.7493 25.3013 49.6 25.248C49.456 25.1893 49.2587 25.128 49.008 25.064C48.6827 24.9787 48.4187 24.8933 48.216 24.808C48.0133 24.7227 47.84 24.5973 47.696 24.432C47.5573 24.2613 47.488 24.0347 47.488 23.752C47.488 23.5387 47.552 23.3413 47.68 23.16C47.808 22.9787 47.9893 22.8347 48.224 22.728C48.4587 22.6213 48.7253 22.568 49.024 22.568C49.4933 22.568 49.872 22.688 50.16 22.928C50.448 23.1627 50.6027 23.488 50.624 23.904H50.064C50.048 23.648 49.9467 23.4427 49.76 23.288C49.5787 23.128 49.328 23.048 49.008 23.048C48.7253 23.048 48.496 23.1147 48.32 23.248C48.144 23.3813 48.056 23.5467 48.056 23.744C48.056 23.9147 48.1067 24.056 48.208 24.168C48.3147 24.2747 48.4453 24.36 48.6 24.424C48.7547 24.4827 48.9627 24.5493 49.224 24.624C49.5387 24.7093 49.7893 24.792 49.976 24.872C50.1627 24.952 50.3227 25.0693 50.456 25.224C50.5893 25.3787 50.6587 25.584 50.664 25.84C50.664 26.0747 50.6 26.2853 50.472 26.472C50.344 26.6533 50.1653 26.7973 49.936 26.904C49.7067 27.0107 49.4427 27.064 49.144 27.064ZM53.6301 27.064C53.2195 27.064 52.8488 26.9733 52.5181 26.792C52.1928 26.6053 51.9341 26.344 51.7421 26.008C51.5555 25.6667 51.4621 25.2693 51.4621 24.816C51.4621 24.3627 51.5581 23.968 51.7501 23.632C51.9421 23.2907 52.2035 23.0293 52.5341 22.848C52.8648 22.6613 53.2355 22.568 53.6461 22.568C54.0568 22.568 54.4275 22.6613 54.7581 22.848C55.0941 23.0293 55.3555 23.2907 55.5421 23.632C55.7341 23.968 55.8301 24.3627 55.8301 24.816C55.8301 25.264 55.7341 25.6587 55.5421 26C55.3501 26.3413 55.0861 26.6053 54.7501 26.792C54.4141 26.9733 54.0408 27.064 53.6301 27.064ZM53.6301 26.576C53.9181 26.576 54.1848 26.512 54.4301 26.384C54.6755 26.2507 54.8728 26.0533 55.0221 25.792C55.1768 25.5253 55.2541 25.2 55.2541 24.816C55.2541 24.432 55.1795 24.1093 55.0301 23.848C54.8808 23.5813 54.6835 23.384 54.4381 23.256C54.1928 23.1227 53.9261 23.056 53.6381 23.056C53.3501 23.056 53.0835 23.1227 52.8381 23.256C52.5928 23.384 52.3955 23.5813 52.2461 23.848C52.1021 24.1093 52.0301 24.432 52.0301 24.816C52.0301 25.2 52.1021 25.5253 52.2461 25.792C52.3955 26.0533 52.5901 26.2507 52.8301 26.384C53.0755 26.512 53.3421 26.576 53.6301 26.576ZM57.4109 21.08V27H56.8509V21.08H57.4109ZM58.4231 24.808C58.4231 24.36 58.5111 23.968 58.6871 23.632C58.8684 23.2907 59.1164 23.0293 59.4311 22.848C59.7511 22.6613 60.1111 22.568 60.5111 22.568C60.9271 22.568 61.2844 22.664 61.5831 22.856C61.8871 23.048 62.1057 23.2933 62.2391 23.592V22.632H62.7991V27H62.2391V26.032C62.1004 26.3307 61.8791 26.5787 61.5751 26.776C61.2764 26.968 60.9191 27.064 60.5031 27.064C60.1084 27.064 59.7511 26.9707 59.4311 26.784C59.1164 26.5973 58.8684 26.3333 58.6871 25.992C58.5111 25.6507 58.4231 25.256 58.4231 24.808ZM62.2391 24.816C62.2391 24.464 62.1671 24.1547 62.0231 23.888C61.8791 23.6213 61.6817 23.416 61.4311 23.272C61.1857 23.128 60.9137 23.056 60.6151 23.056C60.3057 23.056 60.0284 23.1253 59.7831 23.264C59.5377 23.4027 59.3431 23.6053 59.1991 23.872C59.0604 24.1333 58.9911 24.4453 58.9911 24.808C58.9911 25.1653 59.0604 25.48 59.1991 25.752C59.3431 26.0187 59.5377 26.224 59.7831 26.368C60.0284 26.5067 60.3057 26.576 60.6151 26.576C60.9137 26.576 61.1857 26.504 61.4311 26.36C61.6817 26.216 61.8791 26.0107 62.0231 25.744C62.1671 25.4773 62.2391 25.168 62.2391 24.816ZM64.6375 23.408C64.7602 23.136 64.9468 22.9253 65.1975 22.776C65.4535 22.6267 65.7655 22.552 66.1335 22.552V23.136H65.9815C65.5762 23.136 65.2508 23.2453 65.0055 23.464C64.7602 23.6827 64.6375 24.048 64.6375 24.56V27H64.0775V22.632H64.6375V23.408ZM73.1953 24.28H71.4113V26.08H70.8913V24.28H69.1153V23.8H70.8913V22H71.4113V23.8H73.1953V24.28ZM80.5608 24.592C80.5608 24.784 80.5554 24.9307 80.5448 25.032H76.9208C76.9368 25.3627 77.0168 25.6453 77.1608 25.88C77.3048 26.1147 77.4941 26.2933 77.7288 26.416C77.9634 26.5333 78.2194 26.592 78.4968 26.592C78.8594 26.592 79.1634 26.504 79.4088 26.328C79.6594 26.152 79.8248 25.9147 79.9048 25.616H80.4968C80.3901 26.0427 80.1608 26.392 79.8088 26.664C79.4621 26.9307 79.0248 27.064 78.4968 27.064C78.0861 27.064 77.7181 26.9733 77.3928 26.792C77.0674 26.6053 76.8114 26.344 76.6248 26.008C76.4434 25.6667 76.3528 25.2693 76.3528 24.816C76.3528 24.3627 76.4434 23.9653 76.6248 23.624C76.8061 23.2827 77.0594 23.0213 77.3848 22.84C77.7101 22.6587 78.0808 22.568 78.4968 22.568C78.9128 22.568 79.2754 22.6587 79.5848 22.84C79.8994 23.0213 80.1394 23.2667 80.3048 23.576C80.4754 23.88 80.5608 24.2187 80.5608 24.592ZM79.9928 24.576C79.9981 24.2507 79.9314 23.9733 79.7928 23.744C79.6594 23.5147 79.4754 23.3413 79.2408 23.224C79.0061 23.1067 78.7501 23.048 78.4728 23.048C78.0568 23.048 77.7021 23.1813 77.4088 23.448C77.1154 23.7147 76.9528 24.0907 76.9208 24.576H79.9928ZM83.6333 22.552C84.156 22.552 84.5826 22.7147 84.9133 23.04C85.244 23.36 85.4093 23.8267 85.4093 24.44V27H84.8573V24.504C84.8573 24.0293 84.7373 23.6667 84.4973 23.416C84.2626 23.1653 83.94 23.04 83.5293 23.04C83.108 23.04 82.772 23.1733 82.5213 23.44C82.2706 23.7067 82.1453 24.0987 82.1453 24.616V27H81.5853V22.632H82.1453V23.376C82.284 23.1093 82.484 22.9067 82.7453 22.768C83.0066 22.624 83.3026 22.552 83.6333 22.552ZM90.5998 24.592C90.5998 24.784 90.5945 24.9307 90.5838 25.032H86.9598C86.9758 25.3627 87.0558 25.6453 87.1998 25.88C87.3438 26.1147 87.5331 26.2933 87.7678 26.416C88.0025 26.5333 88.2585 26.592 88.5358 26.592C88.8985 26.592 89.2025 26.504 89.4478 26.328C89.6985 26.152 89.8638 25.9147 89.9438 25.616H90.5358C90.4291 26.0427 90.1998 26.392 89.8478 26.664C89.5011 26.9307 89.0638 27.064 88.5358 27.064C88.1251 27.064 87.7571 26.9733 87.4318 26.792C87.1065 26.6053 86.8505 26.344 86.6638 26.008C86.4825 25.6667 86.3918 25.2693 86.3918 24.816C86.3918 24.3627 86.4825 23.9653 86.6638 23.624C86.8451 23.2827 87.0985 23.0213 87.4238 22.84C87.7491 22.6587 88.1198 22.568 88.5358 22.568C88.9518 22.568 89.3145 22.6587 89.6238 22.84C89.9385 23.0213 90.1785 23.2667 90.3438 23.576C90.5145 23.88 90.5998 24.2187 90.5998 24.592ZM90.0318 24.576C90.0371 24.2507 89.9705 23.9733 89.8318 23.744C89.6985 23.5147 89.5145 23.3413 89.2798 23.224C89.0451 23.1067 88.7891 23.048 88.5118 23.048C88.0958 23.048 87.7411 23.1813 87.4478 23.448C87.1545 23.7147 86.9918 24.0907 86.9598 24.576H90.0318ZM92.1844 23.408C92.307 23.136 92.4937 22.9253 92.7444 22.776C93.0004 22.6267 93.3124 22.552 93.6804 22.552V23.136H93.5284C93.123 23.136 92.7977 23.2453 92.5524 23.464C92.307 23.6827 92.1844 24.048 92.1844 24.56V27H91.6244V22.632H92.1844V23.408ZM96.3548 22.568C96.7655 22.568 97.1228 22.664 97.4268 22.856C97.7308 23.048 97.9495 23.2907 98.0828 23.584V22.632H98.6428V27.112C98.6428 27.512 98.5548 27.8667 98.3788 28.176C98.2081 28.4853 97.9681 28.7227 97.6588 28.888C97.3495 29.0587 96.9975 29.144 96.6028 29.144C96.0428 29.144 95.5761 29.0107 95.2028 28.744C94.8348 28.4773 94.6055 28.1147 94.5148 27.656H95.0668C95.1628 27.96 95.3441 28.2027 95.6108 28.384C95.8828 28.5653 96.2135 28.656 96.6028 28.656C96.8855 28.656 97.1388 28.5947 97.3628 28.472C97.5868 28.3547 97.7628 28.1787 97.8908 27.944C98.0188 27.7093 98.0828 27.432 98.0828 27.112V26.032C97.9441 26.3307 97.7228 26.5787 97.4188 26.776C97.1201 26.968 96.7655 27.064 96.3548 27.064C95.9548 27.064 95.5948 26.9707 95.2748 26.784C94.9601 26.5973 94.7121 26.3333 94.5308 25.992C94.3548 25.6507 94.2668 25.256 94.2668 24.808C94.2668 24.36 94.3548 23.968 94.5308 23.632C94.7121 23.2907 94.9601 23.0293 95.2748 22.848C95.5948 22.6613 95.9548 22.568 96.3548 22.568ZM98.0828 24.816C98.0828 24.464 98.0108 24.1547 97.8668 23.888C97.7228 23.6213 97.5255 23.416 97.2748 23.272C97.0295 23.128 96.7575 23.056 96.4588 23.056C96.1495 23.056 95.8721 23.1253 95.6268 23.264C95.3815 23.4027 95.1868 23.6053 95.0428 23.872C94.9041 24.1333 94.8348 24.4453 94.8348 24.808C94.8348 25.1653 94.9041 25.48 95.0428 25.752C95.1868 26.0187 95.3815 26.224 95.6268 26.368C95.8721 26.5067 96.1495 26.576 96.4588 26.576C96.7575 26.576 97.0295 26.504 97.2748 26.36C97.5255 26.216 97.7228 26.0107 97.8668 25.744C98.0108 25.4773 98.0828 25.168 98.0828 24.816ZM103.521 22.632L100.929 29.056H100.345L101.193 26.976L99.4013 22.632H100.017L101.505 26.36L102.945 22.632H103.521Z" fill="#038F00"/>
<defs>
<clipPath id="clip0_82_991">
<path d="M0 0H21.6667C27.3736 0 32 4.62639 32 10.3333V10.3333C32 21.7472 22.7472 31 11.3333 31H10.6667C4.77563 31 0 26.2244 0 20.3333V0Z" fill="white"/>
</clipPath>
</defs>
</svg>
