<svg id="wave" style="transform:rotate(180deg); transition: 0.3s" viewBox="0 0 1440 490" version="1.1" xmlns="http://www.w3.org/2000/svg"><defs><linearGradient id="sw-gradient-0" x1="0" x2="0" y1="1" y2="0"><stop stop-color="rgba(0, 51, 121, 1)" offset="0%"></stop><stop stop-color="rgba(0, 51, 121, 1)" offset="100%"></stop></linearGradient></defs><path style="transform:translate(0, 0px); opacity:1" fill="url(#sw-gradient-0)" d="M0,147L48,163.3C96,180,192,212,288,187.8C384,163,480,82,576,106.2C672,131,768,261,864,277.7C960,294,1056,196,1152,196C1248,196,1344,294,1440,277.7C1536,261,1632,131,1728,130.7C1824,131,1920,261,2016,326.7C2112,392,2208,392,2304,383.8C2400,376,2496,359,2592,351.2C2688,343,2784,343,2880,302.2C2976,261,3072,180,3168,147C3264,114,3360,131,3456,138.8C3552,147,3648,147,3744,179.7C3840,212,3936,278,4032,253.2C4128,229,4224,114,4320,98C4416,82,4512,163,4608,236.8C4704,310,4800,376,4896,392C4992,408,5088,376,5184,302.2C5280,229,5376,114,5472,130.7C5568,147,5664,294,5760,294C5856,294,5952,147,6048,89.8C6144,33,6240,65,6336,138.8C6432,212,6528,327,6624,367.5C6720,408,6816,376,6864,359.3L6912,343L6912,490L6864,490C6816,490,6720,490,6624,490C6528,490,6432,490,6336,490C6240,490,6144,490,6048,490C5952,490,5856,490,5760,490C5664,490,5568,490,5472,490C5376,490,5280,490,5184,490C5088,490,4992,490,4896,490C4800,490,4704,490,4608,490C4512,490,4416,490,4320,490C4224,490,4128,490,4032,490C3936,490,3840,490,3744,490C3648,490,3552,490,3456,490C3360,490,3264,490,3168,490C3072,490,2976,490,2880,490C2784,490,2688,490,2592,490C2496,490,2400,490,2304,490C2208,490,2112,490,2016,490C1920,490,1824,490,1728,490C1632,490,1536,490,1440,490C1344,490,1248,490,1152,490C1056,490,960,490,864,490C768,490,672,490,576,490C480,490,384,490,288,490C192,490,96,490,48,490L0,490Z"></path></svg>